<svg width="119" height="24" viewBox="0 0 119 24" fill="none" xmlns="http://www.w3.org/2000/svg">
<path d="M0.314819 23.9232L9.79371 0.995279L20.7647 0.965401L20.3921 1.9593C21.0552 1.32392 26.8649 -1.66445 29.282 4.59846L32.4519 11.4955L37.2689 4.76052C41.0272 -1.21898 49.5619 -2.09136 49.5619 6.95982C51.3102 0.0988736 57.0828 0.197209 59.8355 0.197209L101.94 0.0595703L101.579 1.2644C101.579 1.2644 101.8 0.596035 105.792 0.596035H114.439L111.626 6.8267H118.685L116.083 13.5741C115.514 15.392 114.117 17.2369 111.962 17.2369L105.115 17.1591C103.714 22.2978 101.589 23.4042 100.234 23.4042H89.1003L92.1774 17.1648H86.6948L84.2086 23.2373H73.1068L79.4649 8.04146H76.3353L75.3478 10.48H64.306L65.3008 8.23389H59.7659L56.6971 15.4653L62.0295 15.5007L63.0434 12.8511H74.3186L71.6366 19.4601C71.6366 19.4601 70.6306 23.2103 65.7143 23.5036H43.4135C40.9903 23.5036 40.8786 22.0553 40.1869 15.437L36.9602 20.0319C34.312 23.9402 32.671 23.8582 31.5194 23.8582H29.9674C27.1914 23.8582 26.0881 23.3346 24.7328 18.7949L22.5068 23.9402L0.314819 23.9232Z" fill="#2E3438"/>
<g filter="url(#filter0_ii_331_14444)">
<path d="M25.3995 16.8508L23.4048 10.6719L19.172 22.2472H11.3473L19.8288 5.27144C21.6765 1.27678 26.3139 1.18585 27.8322 5.02818L32.0424 14.7524L39.3871 4.66328C43.263 0.18564 47.1366 1.6769 47.7554 6.09854L50.4464 22.2083L42.5739 22.1052L41.3333 11.1827L37.5383 16.8508C36.306 18.7168 34.9686 20.5762 33.5534 21.8357C32.6619 22.7272 28.9061 22.7754 28.0343 21.9206C27.1111 21.0153 26.1746 19.0623 25.3995 16.8508Z" fill="url(#paint0_linear_331_14444)"/>
<path d="M25.3995 16.8508L23.4048 10.6719L19.172 22.2472H11.3473L19.8288 5.27144C21.6765 1.27678 26.3139 1.18585 27.8322 5.02818L32.0424 14.7524L39.3871 4.66328C43.263 0.18564 47.1366 1.6769 47.7554 6.09854L50.4464 22.2083L42.5739 22.1052L41.3333 11.1827L37.5383 16.8508C36.306 18.7168 34.9686 20.5762 33.5534 21.8357C32.6619 22.7272 28.9061 22.7754 28.0343 21.9206C27.1111 21.0153 26.1746 19.0623 25.3995 16.8508Z" fill="#009FFF" fill-opacity="0.18"/>
</g>
<g filter="url(#filter1_ii_331_14444)">
<path d="M2.52319 22.5099L10.7018 2.34081L18.418 2.28613L12.3211 17.3796H23.697L21.5836 22.3612L2.52319 22.5099Z" fill="url(#paint1_linear_331_14444)"/>
</g>
<path d="M13.1908 15.4668H23.6362V17.3793H12.3711L13.1908 15.4668Z" fill="#2E3438"/>
<path d="M46.6581 17.5133C45.5806 20.2035 47.3115 21.9695 50.2697 21.9695H53.5503L53.0691 23.2008C50.1846 23.3223 48.6086 23.3283 46.4581 22.3443C44.701 20.9817 44.1089 20.0045 45.2195 17.0883L48.6626 8.92188L50.0009 9.45475L46.6581 17.5133Z" fill="#2E3438"/>
<g filter="url(#filter2_ii_331_14444)">
<path d="M50.2697 21.9701C47.3116 21.9701 45.5807 20.2041 46.6581 17.5139L51.0356 6.96107C52.0449 4.58996 53.6126 1.96959 57.583 1.96959L73.0351 1.75391C76.3046 1.75391 76.6246 3.2233 75.9313 4.95832L74.357 9.01004H66.6879L67.8833 6.75273L55.6309 6.82242L57.8912 9.01004L54.3478 17.0981H63.1291L64.107 14.7481H71.5815L70.7743 17.0188C69.7377 20.0661 68.0194 21.9701 64.5413 21.9701H50.2697Z" fill="url(#paint2_linear_331_14444)"/>
</g>
<g filter="url(#filter3_ii_331_14444)">
<path d="M83.3617 21.6401H75.568L81.9371 6.63948H77.3366C77.9419 4.97407 78.7445 3.89241 77.3366 1.85125L99.8191 1.37695L97.7083 6.42937H86.6793L88.6525 8.36712C88.7666 8.49647 88.7661 8.60924 88.7152 8.84171L83.3617 21.6401Z" fill="url(#paint3_linear_331_14444)"/>
<path d="M83.3617 21.6401H75.568L81.9371 6.63948H77.3366C77.9419 4.97407 78.7445 3.89241 77.3366 1.85125L99.8191 1.37695L97.7083 6.42937H86.6793L88.6525 8.36712C88.7666 8.49647 88.7661 8.60924 88.7152 8.84171L83.3617 21.6401Z" fill="#009FFF" fill-opacity="0.18"/>
</g>
<g filter="url(#filter4_ii_331_14444)">
<path d="M100.024 21.7461L92.0294 21.663L94.6125 16.2837C95.0891 15.1755 95.8368 14.7924 97.5419 14.7924H101.776C103.581 14.7924 104.118 13.2444 104.639 11.9297L105.398 10.2786C105.938 9.02419 107.376 8.39357 108.888 8.39355L116.263 8.45447L114.479 12.7685C113.717 14.8338 113.117 15.5438 111.673 15.5438L105.105 15.3916C104.453 15.3916 103.539 16.2503 103.241 17.3489L102.268 19.8513C101.597 21.1027 101.132 21.58 100.024 21.7461Z" fill="#009FFF" fill-opacity="0.18"/>
<path d="M100.024 21.7461L92.0294 21.663L94.6125 16.2837C95.0891 15.1755 95.8368 14.7924 97.5419 14.7924H101.776C103.581 14.7924 104.118 13.2444 104.639 11.9297L105.398 10.2786C105.938 9.02419 107.376 8.39357 108.888 8.39355L116.263 8.45447L114.479 12.7685C113.717 14.8338 113.117 15.5438 111.673 15.5438L105.105 15.3916C104.453 15.3916 103.539 16.2503 103.241 17.3489L102.268 19.8513C101.597 21.1027 101.132 21.58 100.024 21.7461Z" fill="url(#paint4_linear_331_14444)"/>
<path d="M100.024 21.7461L92.0294 21.663L94.6125 16.2837C95.0891 15.1755 95.8368 14.7924 97.5419 14.7924H101.776C103.581 14.7924 104.118 13.2444 104.639 11.9297L105.398 10.2786C105.938 9.02419 107.376 8.39357 108.888 8.39355L116.263 8.45447L114.479 12.7685C113.717 14.8338 113.117 15.5438 111.673 15.5438L105.105 15.3916C104.453 15.3916 103.539 16.2503 103.241 17.3489L102.268 19.8513C101.597 21.1027 101.132 21.58 100.024 21.7461Z" fill="#009FFF" fill-opacity="0.18"/>
</g>
<g filter="url(#filter5_ii_331_14444)">
<path d="M95.7522 15.5806H88.1879L90.4498 9.96303C90.9264 8.85476 91.6555 8.51413 93.3605 8.51413H97.539C99.3435 8.51413 99.1264 8.35007 100.402 5.65139L101.161 4.00032C101.701 2.74587 102.649 2.11523 104.651 2.11523L112.026 2.17615L110.158 6.45901C109.342 8.51413 108.711 9.26549 107.436 9.26549H101.161C100.509 9.26549 99.4045 10.3338 99.0151 11.372L98.0305 13.573C97.3604 14.8244 96.8603 15.4145 95.7522 15.5806Z" fill="url(#paint5_linear_331_14444)"/>
</g>
<defs>
<filter id="filter0_ii_331_14444" x="11.3473" y="1.95508" width="39.0991" height="20.5791" filterUnits="userSpaceOnUse" color-interpolation-filters="sRGB">
<feFlood flood-opacity="0" result="BackgroundImageFix"/>
<feBlend mode="normal" in="SourceGraphic" in2="BackgroundImageFix" result="shape"/>
<feColorMatrix in="SourceAlpha" type="matrix" values="0 0 0 0 0 0 0 0 0 0 0 0 0 0 0 0 0 0 127 0" result="hardAlpha"/>
<feOffset dx="0.446112"/>
<feComposite in2="hardAlpha" operator="arithmetic" k2="-1" k3="1"/>
<feColorMatrix type="matrix" values="0 0 0 0 1 0 0 0 0 1 0 0 0 0 1 0 0 0 1 0"/>
<feBlend mode="normal" in2="shape" result="effect1_innerShadow_331_14444"/>
<feColorMatrix in="SourceAlpha" type="matrix" values="0 0 0 0 0 0 0 0 0 0 0 0 0 0 0 0 0 0 127 0" result="hardAlpha"/>
<feOffset dx="-0.446112"/>
<feComposite in2="hardAlpha" operator="arithmetic" k2="-1" k3="1"/>
<feColorMatrix type="matrix" values="0 0 0 0 1 0 0 0 0 1 0 0 0 0 1 0 0 0 1 0"/>
<feBlend mode="normal" in2="effect1_innerShadow_331_14444" result="effect2_innerShadow_331_14444"/>
</filter>
<filter id="filter1_ii_331_14444" x="2.52319" y="2.28613" width="21.1738" height="20.2236" filterUnits="userSpaceOnUse" color-interpolation-filters="sRGB">
<feFlood flood-opacity="0" result="BackgroundImageFix"/>
<feBlend mode="normal" in="SourceGraphic" in2="BackgroundImageFix" result="shape"/>
<feColorMatrix in="SourceAlpha" type="matrix" values="0 0 0 0 0 0 0 0 0 0 0 0 0 0 0 0 0 0 127 0" result="hardAlpha"/>
<feOffset dx="0.446112"/>
<feComposite in2="hardAlpha" operator="arithmetic" k2="-1" k3="1"/>
<feColorMatrix type="matrix" values="0 0 0 0 1 0 0 0 0 1 0 0 0 0 1 0 0 0 1 0"/>
<feBlend mode="normal" in2="shape" result="effect1_innerShadow_331_14444"/>
<feColorMatrix in="SourceAlpha" type="matrix" values="0 0 0 0 0 0 0 0 0 0 0 0 0 0 0 0 0 0 127 0" result="hardAlpha"/>
<feOffset dx="-0.446112"/>
<feComposite in2="hardAlpha" operator="arithmetic" k2="-1" k3="1"/>
<feColorMatrix type="matrix" values="0 0 0 0 1 0 0 0 0 1 0 0 0 0 1 0 0 0 1 0"/>
<feBlend mode="normal" in2="effect1_innerShadow_331_14444" result="effect2_innerShadow_331_14444"/>
</filter>
<filter id="filter2_ii_331_14444" x="46.3359" y="1.75391" width="29.8973" height="20.2158" filterUnits="userSpaceOnUse" color-interpolation-filters="sRGB">
<feFlood flood-opacity="0" result="BackgroundImageFix"/>
<feBlend mode="normal" in="SourceGraphic" in2="BackgroundImageFix" result="shape"/>
<feColorMatrix in="SourceAlpha" type="matrix" values="0 0 0 0 0 0 0 0 0 0 0 0 0 0 0 0 0 0 127 0" result="hardAlpha"/>
<feOffset dx="0.446112"/>
<feComposite in2="hardAlpha" operator="arithmetic" k2="-1" k3="1"/>
<feColorMatrix type="matrix" values="0 0 0 0 1 0 0 0 0 1 0 0 0 0 1 0 0 0 1 0"/>
<feBlend mode="normal" in2="shape" result="effect1_innerShadow_331_14444"/>
<feColorMatrix in="SourceAlpha" type="matrix" values="0 0 0 0 0 0 0 0 0 0 0 0 0 0 0 0 0 0 127 0" result="hardAlpha"/>
<feOffset dx="-0.446112"/>
<feComposite in2="hardAlpha" operator="arithmetic" k2="-1" k3="1"/>
<feColorMatrix type="matrix" values="0 0 0 0 1 0 0 0 0 1 0 0 0 0 1 0 0 0 1 0"/>
<feBlend mode="normal" in2="effect1_innerShadow_331_14444" result="effect2_innerShadow_331_14444"/>
</filter>
<filter id="filter3_ii_331_14444" x="75.568" y="1.37695" width="24.2512" height="20.2627" filterUnits="userSpaceOnUse" color-interpolation-filters="sRGB">
<feFlood flood-opacity="0" result="BackgroundImageFix"/>
<feBlend mode="normal" in="SourceGraphic" in2="BackgroundImageFix" result="shape"/>
<feColorMatrix in="SourceAlpha" type="matrix" values="0 0 0 0 0 0 0 0 0 0 0 0 0 0 0 0 0 0 127 0" result="hardAlpha"/>
<feOffset dx="0.446112"/>
<feComposite in2="hardAlpha" operator="arithmetic" k2="-1" k3="1"/>
<feColorMatrix type="matrix" values="0 0 0 0 1 0 0 0 0 1 0 0 0 0 1 0 0 0 1 0"/>
<feBlend mode="normal" in2="shape" result="effect1_innerShadow_331_14444"/>
<feColorMatrix in="SourceAlpha" type="matrix" values="0 0 0 0 0 0 0 0 0 0 0 0 0 0 0 0 0 0 127 0" result="hardAlpha"/>
<feOffset dx="-0.446112"/>
<feComposite in2="hardAlpha" operator="arithmetic" k2="-1" k3="1"/>
<feColorMatrix type="matrix" values="0 0 0 0 1 0 0 0 0 1 0 0 0 0 1 0 0 0 1 0"/>
<feBlend mode="normal" in2="effect1_innerShadow_331_14444" result="effect2_innerShadow_331_14444"/>
</filter>
<filter id="filter4_ii_331_14444" x="92.0294" y="8.39355" width="24.2334" height="13.3525" filterUnits="userSpaceOnUse" color-interpolation-filters="sRGB">
<feFlood flood-opacity="0" result="BackgroundImageFix"/>
<feBlend mode="normal" in="SourceGraphic" in2="BackgroundImageFix" result="shape"/>
<feColorMatrix in="SourceAlpha" type="matrix" values="0 0 0 0 0 0 0 0 0 0 0 0 0 0 0 0 0 0 127 0" result="hardAlpha"/>
<feOffset dx="0.446112"/>
<feComposite in2="hardAlpha" operator="arithmetic" k2="-1" k3="1"/>
<feColorMatrix type="matrix" values="0 0 0 0 1 0 0 0 0 1 0 0 0 0 1 0 0 0 1 0"/>
<feBlend mode="normal" in2="shape" result="effect1_innerShadow_331_14444"/>
<feColorMatrix in="SourceAlpha" type="matrix" values="0 0 0 0 0 0 0 0 0 0 0 0 0 0 0 0 0 0 127 0" result="hardAlpha"/>
<feOffset dx="-0.446112"/>
<feComposite in2="hardAlpha" operator="arithmetic" k2="-1" k3="1"/>
<feColorMatrix type="matrix" values="0 0 0 0 1 0 0 0 0 1 0 0 0 0 1 0 0 0 1 0"/>
<feBlend mode="normal" in2="effect1_innerShadow_331_14444" result="effect2_innerShadow_331_14444"/>
</filter>
<filter id="filter5_ii_331_14444" x="88.1879" y="2.11523" width="23.8379" height="13.4658" filterUnits="userSpaceOnUse" color-interpolation-filters="sRGB">
<feFlood flood-opacity="0" result="BackgroundImageFix"/>
<feBlend mode="normal" in="SourceGraphic" in2="BackgroundImageFix" result="shape"/>
<feColorMatrix in="SourceAlpha" type="matrix" values="0 0 0 0 0 0 0 0 0 0 0 0 0 0 0 0 0 0 127 0" result="hardAlpha"/>
<feOffset dx="0.446112"/>
<feComposite in2="hardAlpha" operator="arithmetic" k2="-1" k3="1"/>
<feColorMatrix type="matrix" values="0 0 0 0 1 0 0 0 0 1 0 0 0 0 1 0 0 0 1 0"/>
<feBlend mode="normal" in2="shape" result="effect1_innerShadow_331_14444"/>
<feColorMatrix in="SourceAlpha" type="matrix" values="0 0 0 0 0 0 0 0 0 0 0 0 0 0 0 0 0 0 127 0" result="hardAlpha"/>
<feOffset dx="-0.446112"/>
<feComposite in2="hardAlpha" operator="arithmetic" k2="-1" k3="1"/>
<feColorMatrix type="matrix" values="0 0 0 0 1 0 0 0 0 1 0 0 0 0 1 0 0 0 1 0"/>
<feBlend mode="normal" in2="effect1_innerShadow_331_14444" result="effect2_innerShadow_331_14444"/>
</filter>
<linearGradient id="paint0_linear_331_14444" x1="37.4909" y1="0.947293" x2="30.8968" y2="22.534" gradientUnits="userSpaceOnUse">
<stop stop-color="#54BFFF"/>
<stop offset="0.1875" stop-color="#54BFFF"/>
<stop offset="0.40625" stop-color="#9BDAFF"/>
<stop offset="1" stop-color="#3CB6FF"/>
</linearGradient>
<linearGradient id="paint1_linear_331_14444" x1="13.1101" y1="2.28613" x2="8.29911" y2="22.5099" gradientUnits="userSpaceOnUse">
<stop stop-color="#D8D8D8"/>
<stop offset="0.307497" stop-color="white"/>
<stop offset="1" stop-color="#C8D2D8"/>
</linearGradient>
<linearGradient id="paint2_linear_331_14444" x1="61.2845" y1="1.75391" x2="61.8992" y2="24.0849" gradientUnits="userSpaceOnUse">
<stop stop-color="#D8D8D8"/>
<stop offset="0.307497" stop-color="white"/>
<stop offset="1" stop-color="#C8D2D8"/>
</linearGradient>
<linearGradient id="paint3_linear_331_14444" x1="91.7836" y1="0.384631" x2="82.6597" y2="19.1989" gradientUnits="userSpaceOnUse">
<stop stop-color="#54BFFF"/>
<stop offset="0.1875" stop-color="#54BFFF"/>
<stop offset="0.40625" stop-color="#9BDAFF"/>
<stop offset="1" stop-color="#3CB6FF"/>
</linearGradient>
<linearGradient id="paint4_linear_331_14444" x1="108.233" y1="7.73966" x2="103.79" y2="21.6323" gradientUnits="userSpaceOnUse">
<stop stop-color="#54BFFF"/>
<stop offset="0.1875" stop-color="#54BFFF"/>
<stop offset="0.40625" stop-color="#9BDAFF"/>
<stop offset="1" stop-color="#3CB6FF"/>
</linearGradient>
<linearGradient id="paint5_linear_331_14444" x1="100.107" y1="2.11523" x2="100.449" y2="16.9926" gradientUnits="userSpaceOnUse">
<stop stop-color="#D8D8D8"/>
<stop offset="0.307497" stop-color="white"/>
<stop offset="1" stop-color="#C8D2D8"/>
</linearGradient>
</defs>
</svg>
